<?xml version="1.0" standalone="no"?>
<!DOCTYPE svg PUBLIC "-//W3C//DTD SVG 20010904//EN"
 "http://www.w3.org/TR/2001/REC-SVG-20010904/DTD/svg10.dtd">
<svg version="1.0" xmlns="http://www.w3.org/2000/svg"
 width="500.000000pt" height="500.000000pt" viewBox="0 0 500.000000 500.000000"
 preserveAspectRatio="xMidYMid meet">
<metadata>
Created by potrace 1.14, written by Peter Selinger 2001-2017
</metadata>
<g transform="translate(0.000000,500.000000) scale(0.100000,-0.100000)"
fill="#4f9768" stroke="none">
<path d="M2455 4470 c-4 -11 -1 -27 5 -35 9 -11 9 -89 -1 -338 l-13 -324 -68
-7 c-38 -3 -79 -12 -91 -19 -26 -14 -67 -55 -67 -66 0 -4 -277 -11 -616 -14
-504 -6 -625 -10 -667 -22 -123 -36 -224 -130 -269 -251 -20 -52 -23 -82 -26
-261 l-3 -203 -104 0 c-70 0 -106 -4 -113 -13 -21 -25 -30 -361 -17 -662 5
-121 9 -152 23 -163 10 -8 51 -12 114 -12 l98 0 0 -277 c0 -158 5 -304 11
-342 15 -86 53 -163 109 -221 53 -56 97 -83 176 -110 54 -19 85 -20 641 -20
l583 0 0 -125 0 -125 -481 0 c-433 0 -484 -2 -510 -17 -15 -9 -29 -26 -31 -37
-4 -25 -35 -24 -108 0 -25 9 -74 18 -110 21 -111 9 -184 -34 -258 -153 -18
-28 -32 -56 -32 -63 0 -6 -4 -19 -9 -29 -28 -55 -27 -52 -121 -430 -16 -68
-30 -130 -30 -138 0 -12 291 -14 2020 -14 1584 0 2020 3 2020 12 0 7 -9 42
-20 78 -51 170 -74 246 -76 255 -10 49 -48 155 -56 155 -6 0 -8 9 -5 20 3 12
0 20 -8 20 -8 0 -11 10 -9 28 2 15 -3 46 -11 67 -8 22 -14 32 -15 21 0 -16 -2
-16 -19 6 -11 13 -23 37 -26 51 -4 15 -11 30 -16 32 -4 3 -5 13 -2 22 4 11 3
14 -6 9 -7 -5 -17 6 -28 31 -9 21 -18 32 -20 25 -3 -7 1 -19 7 -27 16 -20 12
-19 -40 6 -53 26 -130 22 -229 -10 -75 -25 -71 -24 -71 -7 0 7 -12 25 -26 40
l-27 26 -487 0 -487 0 -7 61 c-3 34 -6 90 -6 124 l0 62 53 7 c28 3 165 6 302
7 138 0 381 4 540 8 l290 7 76 36 c92 45 158 112 202 206 l32 67 3 331 3 331
107 2 c59 1 112 7 119 13 9 7 13 46 13 130 0 83 5 129 15 155 18 43 21 263 4
313 -7 19 -8 35 -2 39 21 14 77 153 110 269 25 91 27 110 27 312 1 146 -3 234
-13 275 -7 33 -21 94 -31 136 -9 41 -15 90 -12 107 6 42 -12 62 -54 62 -28 0
-36 -5 -44 -25 -10 -25 4 -75 21 -75 9 0 25 -47 38 -110 5 -25 16 -81 25 -125
35 -176 14 -471 -46 -635 -11 -30 -22 -63 -25 -73 -5 -16 -7 -16 -17 5 -11 22
-18 23 -124 26 l-112 3 0 172 c0 95 -4 200 -9 234 -18 121 -84 223 -188 290
-98 62 -104 63 -759 63 l-592 0 -39 39 c-42 42 -92 61 -164 61 l-46 0 -7 318
c-4 174 -7 322 -7 327 7 70 7 70 -21 73 -19 2 -28 -2 -33 -18z m-77 -748 c-26
-9 -53 -23 -60 -29 -16 -17 -28 -16 -28 2 0 8 14 17 35 21 19 3 38 10 41 15 3
5 17 9 32 8 22 0 18 -4 -20 -17z m230 2 c5 -9 24 -16 43 -17 23 -1 34 -7 34
-17 0 -12 -12 -15 -60 -13 -33 1 -107 3 -165 4 l-105 1 45 20 c36 16 58 19
106 14 70 -7 120 4 69 15 -30 7 -30 7 -3 8 15 0 31 -6 36 -15z m-1643 -303 c9
-29 -5 -52 -29 -49 -13 2 -22 12 -24 27 -6 38 41 58 53 22z m3055 -5 c0 -14
-4 -27 -9 -30 -15 -10 -41 5 -41 23 0 23 9 31 32 31 12 0 18 -7 18 -24z
m-2145 -322 c30 -11 32 -13 10 -9 -157 32 -341 3 -497 -76 -32 -16 -58 -28
-58 -25 0 7 121 76 135 76 8 0 16 4 19 9 4 5 28 12 54 16 26 3 54 10 62 16 25
15 230 11 275 -7z m1282 -40 c-3 -3 -12 -4 -19 -1 -8 3 -5 6 6 6 11 1 17 -2
13 -5z m-1592 -33 c-3 -5 -19 -12 -35 -16 -16 -4 -32 -11 -35 -16 -4 -5 -11
-9 -17 -9 -7 0 -6 6 2 15 7 8 21 15 31 15 10 0 21 5 24 10 3 6 13 10 21 10 8
0 13 -4 9 -9z m-107 -43 c-2 -6 -12 -12 -21 -14 -9 -1 -15 2 -11 7 3 5 10 7
15 4 5 -4 9 -1 9 4 0 6 3 11 6 11 3 0 4 -5 2 -12z m-81 -52 c0 -8 -6 -12 -15
-8 -9 3 -13 1 -11 -4 2 -5 -34 -47 -80 -94 -67 -66 -78 -75 -54 -40 17 25 43
53 57 64 14 10 23 23 20 28 -3 4 -2 7 3 6 4 -1 22 12 40 30 35 36 40 38 40 18z
m-837 -56 c0 -5 -9 -10 -21 -10 -11 0 -29 -5 -40 -10 -16 -9 -19 -7 -19 10 0
17 6 20 40 20 22 0 40 -4 40 -10z m2653 -36 c8 -8 -3 -34 -15 -34 -6 0 -6 6 1
14 10 12 8 15 -11 19 -21 4 -21 4 -2 6 11 0 23 -2 27 -5z m60 -19 c-3 -9 -8
-14 -10 -11 -3 3 -2 9 2 15 9 16 15 13 8 -4z m-156 -1 c-3 -4 1 -13 10 -22 14
-14 17 -14 31 4 8 11 13 13 10 4 -5 -12 5 -15 53 -14 32 1 69 -4 83 -11 13 -7
27 -11 29 -8 3 2 15 -5 27 -17 12 -12 31 -20 43 -20 35 3 51 1 44 -7 -4 -3 -3
-11 1 -18 4 -6 -1 -2 -10 8 -10 11 -18 15 -18 9 0 -6 12 -21 28 -34 42 -37
102 -115 94 -123 -4 -5 -1 -5 6 -1 9 6 10 11 3 20 -8 9 -7 13 3 13 8 0 12 -11
11 -31 -2 -32 12 -59 25 -51 4 3 14 -3 21 -13 13 -15 12 -16 -3 -3 -10 7 -18
10 -19 5 0 -5 -2 -49 -3 -99 -2 -98 -5 -115 -25 -139 -7 -9 -11 -16 -8 -16 3
0 -9 -15 -28 -33 -19 -19 -33 -37 -30 -40 3 -4 2 -5 -2 -2 -3 3 -20 -6 -37
-18 -17 -13 -50 -32 -73 -42 -23 -10 -40 -22 -38 -26 3 -4 -5 -5 -17 -1 -16 4
-19 2 -13 -8 6 -10 4 -11 -6 -4 -18 11 -130 5 -147 -8 -9 -8 -11 -7 -6 6 4 11
1 16 -13 16 -24 0 -118 39 -155 63 -15 10 -32 16 -37 12 -6 -3 -9 0 -6 8 8 19
-31 66 -52 63 -10 -2 -12 -1 -5 1 14 5 15 15 4 29 -30 35 -45 192 -24 244 7
19 6 32 -3 49 -8 15 -14 20 -18 12 -4 -8 -5 -7 -3 1 2 7 9 12 16 10 8 -2 10 3
6 13 -7 19 14 55 31 55 7 0 13 5 13 11 0 5 -5 7 -12 3 -7 -4 -8 -3 -4 5 6 9
11 9 22 0 19 -16 18 -18 -12 -29 -18 -7 -24 -15 -20 -26 3 -8 2 -13 -2 -10 -4
2 -8 -4 -8 -15 0 -10 3 -19 7 -19 11 0 19 29 12 47 -4 10 -2 14 4 10 12 -8 46
26 36 36 -3 4 -1 7 6 7 7 0 10 4 7 9 -3 4 3 16 14 26 15 14 17 21 9 32 -10 11
-8 12 6 7 12 -5 16 -4 11 4 -3 6 -2 13 3 17 13 7 5 -35 -9 -49 -23 -23 -8 -25
17 -1 15 14 34 25 41 25 7 0 15 7 18 15 4 8 10 12 15 9 5 -2 18 0 30 6 15 9
18 15 10 23 -14 14 -14 27 1 27 6 0 9 -3 5 -6z m238 -3 c-9 -8 -36 -10 -30 -2
2 4 11 8 20 8 8 0 13 -3 10 -6z m-1475 -44 c96 -35 172 -103 221 -198 30 -57
33 -73 33 -149 1 -75 -3 -92 -29 -145 -58 -115 -147 -183 -254 -194 -74 -7
-189 3 -205 19 -5 5 -18 10 -28 10 -10 0 -18 5 -18 10 0 6 -7 10 -15 10 -25 0
-133 109 -158 160 -20 40 -24 60 -21 112 2 35 8 72 13 83 27 63 40 85 79 137
24 32 51 62 62 68 10 5 24 16 32 22 7 7 31 21 53 32 22 10 47 22 55 27 23 12
141 10 180 -4z m1545 -5 c-11 -11 -55 -13 -55 -3 0 6 6 8 14 5 8 -3 17 0 21 5
3 6 11 9 16 5 6 -3 8 -9 4 -12z m105 -141 c-1 -13 -3 -12 -12 4 -6 11 -14 22
-18 25 -4 3 -13 16 -20 30 -11 20 -7 19 18 -9 18 -18 32 -41 32 -50z m24 49
c-6 -6 -10 -3 -10 10 0 13 4 16 10 10 7 -7 7 -13 0 -20z m-2383 -13 c-10 -9
-11 -8 -5 6 3 10 9 15 12 12 3 -3 0 -11 -7 -18z m2405 4 c-4 -5 -2 -11 4 -13
6 -2 2 -8 -9 -15 -15 -10 -20 -9 -25 2 -3 9 0 12 10 8 8 -3 14 -2 13 3 -2 14
0 24 7 24 3 0 3 -4 0 -9z m38 -47 c3 -8 2 -12 -4 -9 -6 3 -10 1 -10 -6 0 -7
-2 -10 -5 -7 -5 5 4 38 10 38 2 0 6 -7 9 -16z m763 -16 c-3 -8 -6 -5 -6 6 -1
11 2 17 5 13 3 -3 4 -12 1 -19z m-1515 -70 c-7 -7 -12 -21 -13 -32 0 -21 0
-21 -9 -1 -12 27 -12 37 -1 30 5 -3 12 -1 16 5 3 5 9 10 13 10 3 0 1 -5 -6
-12z m797 -42 c-1 -17 -2 -16 -9 6 -4 14 -11 32 -15 40 -3 7 1 4 9 -6 9 -11
16 -29 15 -40z m8 -71 c0 -8 -4 -12 -9 -9 -5 3 -6 10 -3 15 9 13 12 11 12 -6z
m-20 -30 c0 -6 -6 -12 -12 -12 -6 0 -12 6 -12 12 0 6 6 12 12 12 6 0 12 -6 12
-12z m-809 -30 c-3 -3 -9 2 -12 12 -6 14 -5 15 5 6 7 -7 10 -15 7 -18z m979
-50 c-11 -110 -63 -214 -151 -300 -54 -54 -135 -115 -152 -115 -3 0 -21 -7
-40 -16 -19 -9 -37 -15 -39 -12 -3 3 30 22 73 44 92 46 198 146 238 225 35 71
63 157 64 197 0 17 3 32 6 32 4 0 4 -25 1 -55z m-157 11 c0 -2 -7 -7 -16 -10
-8 -3 -12 -2 -9 4 6 10 25 14 25 6z m-10 -46 c0 -5 -2 -10 -4 -10 -3 0 -8 5
-11 10 -3 6 -1 10 4 10 6 0 11 -4 11 -10z m-53 -16 c-3 -3 -12 -4 -19 -1 -8 3
-5 6 6 6 11 1 17 -2 13 -5z m-111 -219 c-1 -8 -5 -17 -8 -21 -5 -4 -4 16 1 34
3 9 9 -1 7 -13z m-55 -12 c13 -16 12 -17 -3 -4 -17 13 -22 21 -14 21 2 0 10
-8 17 -17z m-875 -22 c-3 -4 -40 -11 -82 -14 -42 -3 -81 -10 -87 -16 -6 -6
-15 -11 -21 -11 -6 0 -6 4 1 11 23 23 202 52 189 30z m684 -7 c0 -8 -19 -13
-24 -6 -3 5 1 9 9 9 8 0 15 -2 15 -3z m-711 -18 c-2 -2 -26 -6 -54 -10 -34 -4
-43 -3 -30 3 19 9 93 15 84 7z m871 -126 c-8 -5 -26 -9 -40 -9 l-25 1 25 8
c14 4 32 8 40 9 13 1 13 0 0 -9z m-1713 -16 c-3 -3 -12 -4 -19 -1 -8 3 -5 6 6
6 11 1 17 -2 13 -5z m1596 -1 c-13 -2 -33 -2 -45 0 -13 2 -3 4 22 4 25 0 35
-2 23 -4z m-763 -393 c-69 -3 -123 -7 -120 -9 3 -2 86 -7 185 -11 136 -5 78
-6 -234 -6 -317 1 -415 4 -418 13 -5 14 123 18 502 19 176 0 190 -1 85 -6z"/>
<path d="M3105 2664 c-69 -18 -137 -68 -176 -131 -29 -46 -36 -146 -15 -216
19 -64 79 -133 141 -163 52 -24 159 -22 218 6 94 44 140 124 140 241 1 66 -3
83 -28 124 -32 55 -64 87 -117 115 -37 20 -127 33 -163 24z"/>
<path d="M1690 2622 c-90 -44 -149 -154 -136 -252 13 -99 49 -153 132 -201 93
-53 202 -36 293 45 64 57 86 209 43 292 -23 45 -98 115 -134 126 -48 13 -162
8 -198 -10z"/>
</g>
</svg>
